<?xml version="1.0" encoding="UTF-8"?>
<svg width="700pt" height="700pt" version="1.1" viewBox="0 0 700 700" xmlns="http://www.w3.org/2000/svg" xmlns:xlink="http://www.w3.org/1999/xlink">
 <defs>
  <symbol id="t" overflow="visible">
   <path d="m0.1875-0.015625c-0.011719 0.011719-0.023438 0.015625-0.03125 0.015625h-0.03125c-0.03125 0-0.058594-0.0039062-0.078125-0.015625-0.023438-0.019531-0.03125-0.046875-0.03125-0.078125 0-0.039062 0.0078125-0.066406 0.03125-0.078125 0.019531-0.019531 0.046875-0.03125 0.078125-0.03125h0.03125c0.007812 0 0.019531 0.007813 0.03125 0.015625v0.03125h-0.03125c-0.011719-0.007812-0.023438-0.015625-0.03125-0.015625-0.023438 0-0.039062 0.007813-0.046875 0.015625-0.011719 0.011719-0.015625 0.03125-0.015625 0.0625 0 0.023438 0.0039062 0.039062 0.015625 0.046875 0.0078125 0.011719 0.023437 0.015625 0.046875 0.015625h0.03125c0.007812-0.0078125 0.019531-0.015625 0.03125-0.015625z"/>
  </symbol>
  <symbol id="c" overflow="visible">
   <path d="m0.14062-0.10938h-0.015625c0-0.007813-0.007812-0.015625-0.015625-0.015625-0.011719 0-0.023438 0.007812-0.03125 0.015625v0.046875 0.0625h-0.0625v-0.15625h0.0625v0.03125c0-0.007812 0.0039062-0.015625 0.015625-0.015625 0.007812-0.007813 0.019531-0.015625 0.03125-0.015625h0.015625z"/>
  </symbol>
  <symbol id="a" overflow="visible">
   <path d="m0.17188-0.078125v0.015625h-0.10938v0.03125h0.046875 0.03125c0.007813-0.0078125 0.019531-0.015625 0.03125-0.015625v0.03125c-0.011719 0.011719-0.023437 0.015625-0.03125 0.015625h-0.046875c-0.023438 0-0.042969-0.0039062-0.0625-0.015625-0.011719-0.019531-0.015625-0.039062-0.015625-0.0625 0-0.019531 0.0039062-0.035156 0.015625-0.046875 0.019531-0.019531 0.039062-0.03125 0.0625-0.03125 0.019531 0 0.035156 0.011719 0.046875 0.03125 0.019531 0.011719 0.03125 0.027344 0.03125 0.046875zm-0.046875-0.015625c0-0.007812-0.007812-0.015625-0.015625-0.015625 0-0.007813-0.007813-0.015625-0.015625-0.015625-0.011719 0-0.023438 0.007812-0.03125 0.015625v0.015625z"/>
  </symbol>
  <symbol id="f" overflow="visible">
   <path d="m0.09375-0.0625h-0.03125v0.015625 0.015625h0.015625 0.03125c0.007813-0.0078125 0.015625-0.019531 0.015625-0.03125zm0.078125-0.03125v0.09375h-0.046875v-0.015625c-0.011719 0-0.023438 0.0078125-0.03125 0.015625h-0.03125-0.03125c-0.011719-0.0078125-0.015625-0.023438-0.015625-0.046875 0-0.019531 0.0039062-0.03125 0.015625-0.03125 0.0078125-0.0078125 0.03125-0.015625 0.0625-0.015625h0.03125c0-0.007812-0.007812-0.015625-0.015625-0.015625-0.011719-0.007813-0.023438-0.015625-0.03125-0.015625h-0.03125c-0.011719 0-0.015625 0.007812-0.015625 0.015625v-0.046875h0.03125 0.03125c0.019531 0 0.035156 0.007812 0.046875 0.015625 0.019531 0.011719 0.03125 0.027344 0.03125 0.046875z"/>
  </symbol>
  <symbol id="b" overflow="visible">
   <path d="m0.078125-0.20312v0.046875h0.046875v0.03125h-0.046875v0.078125 0.015625h0.015625 0.03125v0.03125h-0.046875c-0.023438 0-0.039062-0.0039062-0.046875-0.015625v-0.03125-0.078125h-0.03125v-0.03125h0.03125v-0.046875z"/>
  </symbol>
  <symbol id="e" overflow="visible">
   <path d="m0.125-0.125v-0.09375h0.046875v0.21875h-0.046875v-0.015625s-0.007812 0.0078125-0.015625 0.015625h-0.03125c-0.023438 0-0.039062-0.0039062-0.046875-0.015625-0.011719-0.019531-0.015625-0.039062-0.015625-0.0625 0-0.019531 0.0039062-0.035156 0.015625-0.046875 0.0078125-0.019531 0.023438-0.03125 0.046875-0.03125 0.0078125 0 0.019531 0.007812 0.03125 0.015625 0.007813 0 0.015625 0.007813 0.015625 0.015625zm-0.03125 0.09375h0.015625c0.007813-0.0078125 0.015625-0.023438 0.015625-0.046875 0-0.0078125-0.007812-0.019531-0.015625-0.03125 0-0.007813-0.007813-0.015625-0.015625-0.015625-0.011719 0-0.023438 0.007812-0.03125 0.015625v0.03125 0.046875h0.03125z"/>
  </symbol>
  <symbol id="i" overflow="visible">
   <path d="m0.10938-0.03125h0.015625c0.007812-0.0078125 0.015625-0.023438 0.015625-0.046875 0-0.0078125-0.007813-0.019531-0.015625-0.03125 0-0.007813-0.007812-0.015625-0.015625-0.015625-0.011719 0-0.023438 0.007812-0.03125 0.015625v0.03125 0.03125c0.0078125 0.011719 0.019531 0.015625 0.03125 0.015625zm-0.03125-0.09375c0-0.007812 0.0039062-0.015625 0.015625-0.015625 0.007812-0.007813 0.019531-0.015625 0.03125-0.015625 0.019531 0 0.035156 0.011719 0.046875 0.03125 0.007813 0.011719 0.015625 0.027344 0.015625 0.046875 0 0.023438-0.007812 0.042969-0.015625 0.0625-0.011719 0.011719-0.027344 0.015625-0.046875 0.015625h-0.03125c-0.011719-0.0078125-0.015625-0.015625-0.015625-0.015625v0.015625h-0.0625v-0.21875h0.0625z"/>
  </symbol>
  <symbol id="h" overflow="visible">
   <path d="m0-0.15625h0.046875l0.046875 0.10938 0.03125-0.10938h0.046875l-0.0625 0.17188c0 0.019531-0.007813 0.03125-0.015625 0.03125-0.011719 0.0078125-0.023438 0.015625-0.03125 0.015625h-0.03125v-0.03125h0.015625c0.0078125 0 0.015625-0.0078125 0.015625-0.015625v-0.015625z"/>
  </symbol>
  <symbol id="g" overflow="visible">
   <path d="m0.03125-0.20312h0.046875v0.078125h0.078125v-0.078125h0.046875v0.20312h-0.046875v-0.09375h-0.078125v0.09375h-0.046875z"/>
  </symbol>
  <symbol id="s" overflow="visible">
   <path d="m0.015625-0.15625h0.0625v0.15625h-0.0625zm0-0.0625h0.0625v0.046875h-0.0625z"/>
  </symbol>
  <symbol id="r" overflow="visible">
   <path d="m0.125-0.21875v0.046875h-0.03125-0.015625v0.015625h0.046875v0.03125h-0.046875v0.125h-0.046875v-0.125h-0.03125v-0.03125h0.03125c0-0.019531 0.0039062-0.035156 0.015625-0.046875 0.0078125-0.007813 0.023438-0.015625 0.046875-0.015625z"/>
  </symbol>
  <symbol id="d" overflow="visible">
   <path d="m0.09375-0.125c-0.011719 0-0.023438 0.007812-0.03125 0.015625v0.03125 0.046875h0.03125 0.015625c0.007813-0.0078125 0.015625-0.023438 0.015625-0.046875 0-0.0078125-0.007812-0.019531-0.015625-0.03125 0-0.007813-0.007813-0.015625-0.015625-0.015625zm0-0.03125c0.03125 0 0.050781 0.011719 0.0625 0.03125 0.007812 0.011719 0.015625 0.027344 0.015625 0.046875 0 0.023438-0.007813 0.042969-0.015625 0.0625-0.011719 0.011719-0.03125 0.015625-0.0625 0.015625-0.023438 0-0.042969-0.0039062-0.0625-0.015625-0.011719-0.019531-0.015625-0.039062-0.015625-0.0625 0-0.019531 0.0039062-0.035156 0.015625-0.046875 0.019531-0.019531 0.039062-0.03125 0.0625-0.03125z"/>
  </symbol>
  <symbol id="q" overflow="visible">
   <path d="m0.17188-0.125c0-0.007812 0.003906-0.015625 0.015625-0.015625 0.007812-0.007813 0.019531-0.015625 0.03125-0.015625 0.007812 0 0.019531 0.007812 0.03125 0.015625 0.007812 0.011719 0.015625 0.027344 0.015625 0.046875v0.09375h-0.046875v-0.078125-0.015625c0-0.007812-0.007812-0.015625-0.015625-0.015625v-0.015625c-0.011719 0-0.023437 0.007812-0.03125 0.015625v0.03125 0.078125h-0.046875v-0.078125c0-0.019531-0.007812-0.03125-0.015625-0.03125 0-0.007813-0.007813-0.015625-0.015625-0.015625 0 0-0.0078125 0.007812-0.015625 0.015625v0.03125 0.078125h-0.0625v-0.15625h0.0625v0.03125c0-0.007812 0.0039062-0.015625 0.015625-0.015625 0.007812-0.007813 0.019531-0.015625 0.03125-0.015625 0.007812 0 0.015625 0.007812 0.015625 0.015625 0.007813 0 0.019531 0.007813 0.03125 0.015625z"/>
  </symbol>
  <symbol id="p" overflow="visible">
   <path d="m0.17188-0.09375v0.09375h-0.046875v-0.0625-0.03125-0.015625h-0.015625v-0.015625c-0.011719 0-0.023438 0.007812-0.03125 0.015625v0.03125 0.078125h-0.0625v-0.21875h0.0625v0.09375c0-0.007812 0.0039062-0.015625 0.015625-0.015625 0.007812-0.007813 0.019531-0.015625 0.03125-0.015625 0.019531 0 0.03125 0.007812 0.03125 0.015625 0.007812 0.011719 0.015625 0.027344 0.015625 0.046875z"/>
  </symbol>
  <symbol id="o" overflow="visible">
   <path d="m0.03125-0.20312h0.046875l0.078125 0.14062v-0.14062h0.046875v0.20312h-0.046875l-0.078125-0.14062v0.14062h-0.046875z"/>
  </symbol>
  <symbol id="n" overflow="visible">
   <path d="m0.015625-0.0625v-0.09375h0.046875v0.015625 0.03125 0.03125 0.03125h0.015625v0.015625h0.015625c0.007812 0 0.015625-0.0039062 0.015625-0.015625 0.007813-0.0078125 0.015625-0.019531 0.015625-0.03125v-0.078125h0.046875v0.15625h-0.046875v-0.015625c-0.011719 0-0.023438 0.0078125-0.03125 0.015625h-0.015625c-0.023438 0-0.039062-0.0039062-0.046875-0.015625-0.011719-0.0078125-0.015625-0.023438-0.015625-0.046875z"/>
  </symbol>
  <symbol id="m" overflow="visible">
   <path d="m0.17188-0.09375v0.09375h-0.046875v-0.0625-0.03125-0.015625h-0.015625v-0.015625c-0.011719 0-0.023438 0.007812-0.03125 0.015625v0.03125 0.078125h-0.0625v-0.15625h0.0625v0.03125c0-0.007812 0.0039062-0.015625 0.015625-0.015625 0.007812-0.007813 0.019531-0.015625 0.03125-0.015625 0.019531 0 0.03125 0.007812 0.03125 0.015625 0.007812 0.011719 0.015625 0.027344 0.015625 0.046875z"/>
  </symbol>
  <symbol id="l" overflow="visible">
   <path d="m0.03125-0.20312h0.078125c0.03125 0 0.050781 0.007813 0.0625 0.015625 0.007813 0.011719 0.015625 0.027344 0.015625 0.046875 0 0.023437-0.007812 0.042969-0.015625 0.0625-0.011719 0.011719-0.03125 0.015625-0.0625 0.015625h-0.03125v0.0625h-0.046875zm0.046875 0.03125v0.0625h0.03125 0.015625c0.007812-0.007813 0.015625-0.019531 0.015625-0.03125 0-0.007813-0.007813-0.015625-0.015625-0.015625 0-0.007812-0.007812-0.015625-0.015625-0.015625z"/>
  </symbol>
  <symbol id="k" overflow="visible">
   <path d="m0.015625-0.15625h0.0625v0.15625c0 0.019531-0.0078125 0.035156-0.015625 0.046875-0.011719 0.0078125-0.027344 0.015625-0.046875 0.015625h-0.03125v-0.03125h0.015625c0.0078125 0 0.015625-0.0078125 0.015625-0.015625v-0.015625zm0-0.0625h0.0625v0.046875h-0.0625z"/>
  </symbol>
  <symbol id="j" overflow="visible">
   <path d="m0.15625-0.15625v0.046875h-0.03125c0-0.007813-0.007812-0.015625-0.015625-0.015625-0.011719 0-0.023438 0.007812-0.03125 0.015625-0.011719 0.011719-0.015625 0.023438-0.015625 0.03125 0 0.011719 0.0039062 0.023438 0.015625 0.03125 0.0078125 0.011719 0.019531 0.015625 0.03125 0.015625h0.015625c0.007812-0.0078125 0.019531-0.015625 0.03125-0.015625v0.046875h-0.03125-0.03125c-0.023438 0-0.042969-0.0039062-0.0625-0.015625-0.011719-0.019531-0.015625-0.039062-0.015625-0.0625 0-0.019531 0.0039062-0.035156 0.015625-0.046875 0.019531-0.019531 0.039062-0.03125 0.0625-0.03125h0.03125 0.03125z"/>
  </symbol>
 </defs>
 <g>
  <path d="m320.71 207.54h-11.93c-3.2461 0-5.8242-2.6328-5.8242-5.8242 0-3.1914 2.5742-5.8242 5.8242-5.8242h12.207c0.78516-4.5352 2.9688-8.625 6.1055-11.762 0.11328-0.16797 0.22266-0.28125 0.39062-0.39062 3.8633-3.6953 9.1836-5.9922 14.953-5.9922 5.9922 0 11.426 2.4062 15.344 6.3828h0.054688c3.9219 3.9219 6.3281 9.3516 6.3281 15.344h0.054688v40.434h52.977c7.3359 0 13.551 2.8555 18.031 7.7852 4.3125 4.8164 6.832 11.426 6.832 19.098v70.895c-3.0234-0.33594-6.0469-0.50391-9.1289-0.50391-0.83984 0-1.6797 0-2.4648 0.054688l-0.054688-70.449c0-4.7031-1.3984-8.625-3.8086-11.312-2.2383-2.4648-5.4883-3.9219-9.4062-3.9219h-58.801c-3.2461 0-5.8789-2.5742-5.8789-5.8242v-46.258h0.054687c0-2.7422-1.1758-5.2656-2.9688-7.1133-1.8477-1.8477-4.3672-2.9688-7.168-2.9688-2.6328 0-5.0977 1.0078-6.8867 2.7422l-0.22266 0.22266c-1.8477 1.8477-2.9688 4.3672-2.9688 7.1133v64.734c0 2.5195 0.78516 4.0898 2.1289 4.9297 1.9023 1.2891 4.9297 1.793 8.5664 1.793h65.129c3.2461 0 5.8242 2.5742 5.8242 5.7695 0 3.2461-2.5742 5.8242-5.8242 5.8242h-28.504v54.266c0 3.9219-2.0156 8.793-6.0469 12.266-3.0234 2.5742-7.168 4.4258-12.488 4.4258h-37.688c-5.207 0-9.1289 0.95312-11.871 2.7422-2.4062 1.5664-4.0312 4.0312-4.8711 7.2812l-22.062 82.207-0.054688 0.11328c-0.67188 2.6875-0.22266 5.3203 1.0625 7.5586 1.2305 2.1836 3.3594 3.9219 5.9922 4.6484l0.11328 0.054688c2.7422 0.72656 5.4883 0.28125 7.7266-1.0078 2.1836-1.2891 3.9219-3.4141 4.6484-6.1055v-0.054688l17.922-66.809c0.67188-2.6328 3.0234-4.3672 5.6016-4.3672h30.52c-2.2383 3.7539-4.1445 7.6172-5.8242 11.703h-20.215l-16.07 59.977c-5.8789 1.2891-11.199 4.1992-15.289 8.3438-2.9102 2.9102-5.2656 6.3828-6.7773 10.305-1.457-0.054688-2.9102-0.22266-4.3672-0.55859h-0.11328l-0.72656-0.16797c-5.7695-1.5664-10.414-5.3203-13.215-10.137-2.8008-4.8164-3.7539-10.695-2.1836-16.52l22.062-82.207c1.625-6.0469 4.8164-10.754 9.7422-14 4.6484-3.0781 10.695-4.6484 18.258-4.6484h37.688c2.2383 0 3.8633-0.67187 4.9297-1.625 1.2891-1.0625 1.9609-2.4062 1.9609-3.4141v-54.266h-24.977c-5.7695 0-11.031-1.0078-15.008-3.6406-4.5938-3.0234-7.3359-7.7266-7.3359-14.672v-56.672zm150.7 52.922c3.2461 0 5.8242 2.6328 5.8242 5.8242 0 3.2461-2.5742 5.8242-5.8242 5.8242h-11.871v74.312c11.984 4.0898 22.68 10.863 31.414 19.656 14.895 14.84 24.078 35.391 24.078 58.016 0 22.68-9.1836 43.23-24.078 58.07-14.84 14.84-35.336 24.078-58.016 24.078-22.68 0-43.23-9.2383-58.07-24.078-14.84-14.84-24.023-35.391-24.023-58.07 0-5.207 0.44922-10.305 1.3984-15.289h-6.6094l-13.383 49.785c2.9102 1.2305 5.4883 3.0234 7.7266 5.207v0.054687c4.4805 4.4805 7.2812 10.695 7.2812 17.527s-2.8008 13.047-7.2812 17.527c-4.5352 4.5352-10.695 7.2812-17.586 7.2812-6.7773 0-12.992-2.7422-17.527-7.2812-3.1914-3.1914-5.4883-7.2227-6.6094-11.703h-29.121c-3.2461 0-5.8242-2.6328-5.8242-5.8242 0-3.2461 2.5742-5.8242 5.8242-5.8242h29.121c1.1211-4.4805 3.4141-8.5117 6.6094-11.703v-0.054687c4.1445-4.0898 9.6875-6.7773 15.848-7.2227l14.727-54.77c0.50391-2.6875 2.9102-4.6484 5.7109-4.6484h14.223c4.0898-11.816 10.809-22.457 19.488-31.078 14.84-14.895 35.391-24.078 58.07-24.078 5.0977 0 10.078 0.50391 14.953 1.3984v-77.113c0-3.1914 2.6328-5.8242 5.8242-5.8242zm-139.66 211.57c-2.4062-2.3516-5.6562-3.8086-9.3516-3.8086-3.6406 0-6.9453 1.457-9.2969 3.8086v0.054687c-2.3516 2.3516-3.8633 5.6562-3.8633 9.2969s1.5117 6.9453 3.8633 9.2969v0.054687c2.3516 2.3516 5.6562 3.8086 9.2969 3.8086 3.6953 0 6.9453-1.457 9.3516-3.8633 2.3516-2.3516 3.8633-5.6562 3.8633-9.2969s-1.5117-6.9453-3.8633-9.2969zm150.98-97.719c-12.711-12.77-30.352-20.609-49.785-20.609-19.488 0-37.07 7.8398-49.84 20.609-12.711 12.77-20.609 30.352-20.609 49.785 0 19.488 7.8945 37.07 20.609 49.84 12.77 12.711 30.352 20.609 49.84 20.609 19.434 0 37.07-7.8945 49.785-20.609 12.77-12.77 20.664-30.352 20.664-49.84 0-19.434-7.8945-37.016-20.664-49.785zm-52.305-175.39c0-6.4961-2.6328-12.375-6.8867-16.633-4.2578-4.2578-10.137-6.8867-16.633-6.8867-6.4961 0-12.434 2.6328-16.688 6.8867-4.2578 4.2578-6.8867 10.137-6.8867 16.633 0 6.5508 2.6328 12.434 6.8867 16.688 4.2578 4.2578 10.137 6.8867 16.688 6.8867 6.4961 0 12.375-2.6328 16.633-6.8867h0.054687c4.1992-4.2578 6.832-10.137 6.832-16.688zm1.3438-24.863c6.3828 6.3281 10.359 15.176 10.359 24.863 0 9.7422-3.9766 18.535-10.359 24.922-6.3828 6.3828-15.176 10.305-24.863 10.305-9.7422 0-18.535-3.9219-24.922-10.305-6.3828-6.3828-10.305-15.176-10.305-24.922 0-9.6875 3.9219-18.48 10.305-24.863 6.3828-6.3828 15.176-10.359 24.922-10.359 9.6875 0 18.535 3.9766 24.863 10.359zm-116.82 7.3906c0 3.2461-2.6328 5.8789-5.8242 5.8789-3.2461 0-5.8242-2.6328-5.8242-5.8789 0-20.551-3.4727-34.609-11.535-43.23-7.9531-8.5117-21.055-12.266-40.434-12.266-3.1914 0-5.8242-2.5742-5.8242-5.8242 0-1.5117 0.55859-2.8555 1.5117-3.8633 3.1914-4.1992 5.3203-8.457 6.4961-12.602l0.054688-0.22266c1.1758-4.6484 1.1758-9.1289 0-13.047-1.1211-3.8633-3.3047-7.168-6.3828-9.6328-2.0156-1.625-4.4805-2.8555-7.2812-3.5859-3.0781-0.83984-4.9297-4.0898-4.0898-7.168 0.83984-3.1367 4.0312-4.9297 7.168-4.0898 4.3125 1.1758 8.1758 3.1367 11.426 5.7109 4.9844 3.9766 8.5117 9.2969 10.305 15.457 1.7344 5.9375 1.9023 12.602 0.11328 19.375l-0.11328 0.22266c-0.67188 2.6875-1.6797 5.3203-3.0234 8.0078 17.305 1.2891 29.848 6.2148 38.586 15.566 10.305 10.977 14.672 27.609 14.672 51.184zm-95.367-127.68c3.2461 0 5.8242 2.6328 5.8242 5.8789 0 3.1914-2.5742 5.8242-5.8242 5.8242-11.09 0-18.145 5.543-21.168 12.656-1.1758 2.8008-1.793 5.9375-1.793 9.0156 0 3.1367 0.61719 6.2148 1.793 9.0156 3.0234 7.168 10.078 12.77 21.223 12.77 3.1914 0 5.8242 2.5742 5.8242 5.8242 0 10.754 1.1211 17.527 4.7031 21.223 3.5273 3.6953 10.305 5.0977 21.617 5.0977 14.336 0 25.199 2.1836 32.871 8.457 7.8398 6.4961 11.816 16.633 11.816 32.199v19.992c0 3.2461-2.6328 5.8242-5.8789 5.8242-3.1914 0-5.8242-2.5742-5.8242-5.8242v-19.992c0-11.762-2.4648-19.039-7.5039-23.184-5.2656-4.3125-13.832-5.8242-25.48-5.8242-14.672 0-23.969-2.4062-30.016-8.6797-5.207-5.375-7.3359-12.992-7.8398-23.855-13.328-1.7344-22.062-9.6875-26.207-19.488-1.793-4.2578-2.6875-8.9023-2.7422-13.551 0-4.5938 0.89453-9.1836 2.7422-13.496 4.7031-11.145 15.344-19.879 31.863-19.879z"/>
  <use x="70" y="560.839844" xlink:href="#t"/>
  <use x="70.207031" y="560.839844" xlink:href="#c"/>
  <use x="70.34375" y="560.839844" xlink:href="#a"/>
  <use x="70.535156" y="560.839844" xlink:href="#f"/>
  <use x="70.722656" y="560.839844" xlink:href="#b"/>
  <use x="70.855469" y="560.839844" xlink:href="#a"/>
  <use x="71.046875" y="560.839844" xlink:href="#e"/>
  <use x="71.34375" y="560.839844" xlink:href="#i"/>
  <use x="71.542969" y="560.839844" xlink:href="#h"/>
  <use x="71.824219" y="560.839844" xlink:href="#g"/>
  <use x="72.058594" y="560.839844" xlink:href="#f"/>
  <use x="72.246094" y="560.839844" xlink:href="#e"/>
  <use x="72.449219" y="560.839844" xlink:href="#s"/>
  <use x="70" y="561.121094" xlink:href="#r"/>
  <use x="70.121094" y="561.121094" xlink:href="#c"/>
  <use x="70.261719" y="561.121094" xlink:href="#d"/>
  <use x="70.453125" y="561.121094" xlink:href="#q"/>
  <use x="70.839844" y="561.121094" xlink:href="#b"/>
  <use x="70.976562" y="561.121094" xlink:href="#p"/>
  <use x="71.175781" y="561.121094" xlink:href="#a"/>
  <use x="71.460938" y="561.121094" xlink:href="#o"/>
  <use x="71.695312" y="561.121094" xlink:href="#d"/>
  <use x="71.890625" y="561.121094" xlink:href="#n"/>
  <use x="72.089844" y="561.121094" xlink:href="#m"/>
  <use x="72.386719" y="561.121094" xlink:href="#l"/>
  <use x="72.589844" y="561.121094" xlink:href="#c"/>
  <use x="72.726562" y="561.121094" xlink:href="#d"/>
  <use x="72.921875" y="561.121094" xlink:href="#k"/>
  <use x="73.015625" y="561.121094" xlink:href="#a"/>
  <use x="73.207031" y="561.121094" xlink:href="#j"/>
  <use x="73.371094" y="561.121094" xlink:href="#b"/>
 </g>
</svg>
